<svg id="visual" viewBox="0 0 900 600" width="900" height="600" xmlns="http://www.w3.org/2000/svg" xmlns:xlink="http://www.w3.org/1999/xlink" version="1.1"><rect x="0" y="0" width="900" height="600" fill="#1a141c"></rect><path d="M0 423L21.5 436.2C43 449.3 86 475.7 128.8 473.5C171.7 471.3 214.3 440.7 257.2 423.8C300 407 343 404 385.8 417.8C428.7 431.7 471.3 462.3 514.2 480.7C557 499 600 505 642.8 494.2C685.7 483.3 728.3 455.7 771.2 433.5C814 411.3 857 394.7 878.5 386.3L900 378L900 601L878.5 601C857 601 814 601 771.2 601C728.3 601 685.7 601 642.8 601C600 601 557 601 514.2 601C471.3 601 428.7 601 385.8 601C343 601 300 601 257.2 601C214.3 601 171.7 601 128.8 601C86 601 43 601 21.5 601L0 601Z" fill="#da9721" stroke-linecap="round" stroke-linejoin="miter"></path></svg>